<mxfile host="app.diagrams.net" modified="2023-06-21T10:14:14.898Z" agent="Mozilla/5.0 (Macintosh; Intel Mac OS X 10_15_7) AppleWebKit/605.1.15 (KHTML, like Gecko) Version/16.5 Safari/605.1.15" etag="IeyV0Cqxml7XpR5784s2" version="21.5.0" type="device">
  <diagram name="Seite-1" id="1lOM7LZerqZPnMOpxiHa">
    <mxGraphModel dx="544" dy="455" grid="1" gridSize="10" guides="1" tooltips="1" connect="1" arrows="1" fold="1" page="1" pageScale="1" pageWidth="827" pageHeight="1169" math="0" shadow="0">
      <root>
        <mxCell id="0" />
        <mxCell id="1" parent="0" />
        <mxCell id="12iBxm_VB4zqUITPJ39q-3" value="" style="endArrow=classic;html=1;rounded=0;startArrow=oval;startFill=0;strokeColor=default;snapToPoint=0;ignoreEdge=0;comic=0;enumerate=0;orthogonal=0;orthogonalLoop=0;flowAnimation=0;noJump=0;backgroundOutline=0;fixDash=0;anchorPointDirection=1;endFill=1;shadow=0;endSize=6;targetPerimeterSpacing=0;startSize=6;sourcePerimeterSpacing=0;" parent="1" edge="1">
          <mxGeometry width="50" height="50" relative="1" as="geometry">
            <mxPoint x="200" y="200" as="sourcePoint" />
            <mxPoint x="360" y="200" as="targetPoint" />
          </mxGeometry>
        </mxCell>
        <mxCell id="12iBxm_VB4zqUITPJ39q-5" value="e" style="text;strokeColor=none;align=center;fillColor=none;html=1;verticalAlign=middle;whiteSpace=wrap;rounded=0;" parent="1" vertex="1">
          <mxGeometry x="270" y="200" width="20" height="20" as="geometry" />
        </mxCell>
        <mxCell id="12iBxm_VB4zqUITPJ39q-9" value="" style="endArrow=classic;html=1;rounded=0;startArrow=oval;startFill=0;" parent="1" edge="1">
          <mxGeometry width="50" height="50" relative="1" as="geometry">
            <mxPoint x="360" y="200" as="sourcePoint" />
            <mxPoint x="280" y="150" as="targetPoint" />
          </mxGeometry>
        </mxCell>
        <mxCell id="12iBxm_VB4zqUITPJ39q-10" value="" style="endArrow=classic;html=1;rounded=0;endFill=1;startArrow=oval;startFill=0;" parent="1" edge="1">
          <mxGeometry width="50" height="50" relative="1" as="geometry">
            <mxPoint x="280" y="150" as="sourcePoint" />
            <mxPoint x="200" y="200" as="targetPoint" />
          </mxGeometry>
        </mxCell>
        <mxCell id="mi22OaL5r2FWR6us9zC6-1" value="&lt;font style=&quot;font-size: 10px;&quot;&gt;u&lt;/font&gt;" style="text;strokeColor=none;align=center;fillColor=none;html=1;verticalAlign=middle;whiteSpace=wrap;rounded=0;" parent="1" vertex="1">
          <mxGeometry x="180" y="190" width="20" height="20" as="geometry" />
        </mxCell>
        <mxCell id="mi22OaL5r2FWR6us9zC6-2" value="&lt;font size=&quot;1&quot;&gt;&lt;span style=&quot;caret-color: rgb(255, 147, 0);&quot;&gt;w&lt;/span&gt;&lt;/font&gt;" style="text;strokeColor=none;align=center;fillColor=none;html=1;verticalAlign=middle;whiteSpace=wrap;rounded=0;" parent="1" vertex="1">
          <mxGeometry x="360" y="190" width="20" height="20" as="geometry" />
        </mxCell>
        <mxCell id="mi22OaL5r2FWR6us9zC6-4" value="&lt;font color=&quot;#000000&quot; size=&quot;1&quot;&gt;v&lt;/font&gt;" style="text;strokeColor=none;align=center;fillColor=none;html=1;verticalAlign=middle;whiteSpace=wrap;rounded=0;fontColor=#0000CC;" parent="1" vertex="1">
          <mxGeometry x="270" y="130" width="20" height="20" as="geometry" />
        </mxCell>
      </root>
    </mxGraphModel>
  </diagram>
</mxfile>
